<svg xmlns="http://www.w3.org/2000/svg" xmlns:xlink="http://www.w3.org/1999/xlink" width="500" zoomAndPan="magnify" viewBox="0 0 375 374.999991" height="500" preserveAspectRatio="xMidYMid meet" version="1.0"><defs><clipPath id="70938ebf98"><path d="M 50 50.0625 L 324 50.0625 L 324 179 L 50 179 Z M 50 50.0625 " clip-rule="nonzero"/></clipPath><clipPath id="533fcbe6e8"><path d="M 37.5 189 L 188 189 L 188 325 L 37.5 325 Z M 37.5 189 " clip-rule="nonzero"/></clipPath><clipPath id="c5ae48ef82"><path d="M 187 189 L 337.5 189 L 337.5 325 L 187 325 Z M 187 189 " clip-rule="nonzero"/></clipPath><clipPath id="4180686170"><path d="M 155 84.503906 L 220.195312 84.503906 L 220.195312 178.253906 L 155 178.253906 Z M 155 84.503906 " clip-rule="nonzero"/></clipPath><clipPath id="362ad7197b"><path d="M 87.996094 178.492188 L 286.746094 178.492188 L 286.746094 252.742188 L 87.996094 252.742188 Z M 87.996094 178.492188 " clip-rule="nonzero"/></clipPath></defs><g clip-path="url(#70938ebf98)"><path fill="#ffffff" d="M 52.070312 178.449219 C 52.070312 178.449219 52.128906 178.449219 52.128906 178.449219 C 52.730469 178.449219 53.269531 177.96875 53.328125 177.3125 C 55.726562 143.445312 70.710938 111.976562 95.585938 88.722656 C 120.578125 65.347656 153.1875 52.460938 187.410156 52.460938 C 221.394531 52.460938 253.882812 65.167969 278.816406 88.304688 C 303.628906 111.257812 318.734375 142.425781 321.429688 175.992188 C 321.492188 176.589844 322.03125 177.070312 322.628906 177.070312 C 322.691406 177.070312 322.691406 177.070312 322.75 177.070312 C 323.410156 177.011719 323.886719 176.472656 323.828125 175.8125 C 321.070312 141.648438 305.667969 109.941406 280.433594 86.566406 C 255.078125 63.007812 222.054688 50.0625 187.46875 50.0625 C 152.644531 50.0625 119.441406 63.1875 93.96875 86.984375 C 68.671875 110.660156 53.390625 142.726562 50.992188 177.191406 C 50.929688 177.851562 51.410156 178.390625 52.070312 178.449219 Z M 52.070312 178.449219 " fill-opacity="1" fill-rule="nonzero"/></g><g clip-path="url(#533fcbe6e8)"><path fill="#ffffff" d="M 186.332031 321.761719 L 181.835938 321.640625 C 180.335938 321.582031 178.839844 321.460938 177.339844 321.339844 C 176.621094 321.28125 175.84375 321.28125 175.121094 321.160156 L 172.90625 320.921875 L 170.6875 320.683594 L 169.546875 320.5625 C 169.1875 320.503906 168.828125 320.441406 168.410156 320.382812 C 166.972656 319.304688 165.59375 318.164062 164.273438 317.085938 C 162.957031 315.945312 161.636719 314.746094 160.316406 313.609375 C 159.058594 312.46875 157.800781 311.273438 156.601562 310.074219 L 154.804688 308.273438 C 154.203125 307.675781 153.664062 307.015625 153.066406 306.417969 C 152.40625 305.699219 151.746094 305.039062 151.085938 304.378906 C 150.726562 304.019531 150.367188 303.71875 150.070312 303.417969 C 149.710938 303.058594 149.347656 302.761719 148.988281 302.402344 C 147.550781 301.082031 145.992188 299.945312 144.433594 298.746094 C 143.65625 298.144531 142.816406 297.605469 141.976562 297.1875 C 141.136719 296.707031 140.359375 296.226562 139.640625 295.925781 C 138.140625 295.269531 136.703125 295.148438 135.625 295.808594 C 134.664062 296.40625 134.484375 297.425781 134.726562 298.683594 C 134.964844 299.945312 135.742188 301.320312 136.703125 302.761719 C 137.242188 303.539062 137.839844 304.320312 138.5 305.097656 C 139.160156 305.816406 139.878906 306.535156 140.597656 307.195312 C 141.378906 307.855469 142.15625 308.574219 142.996094 309.171875 C 143.835938 309.773438 144.734375 310.3125 145.632812 310.910156 C 151.449219 314.269531 157.621094 317.265625 164.035156 319.78125 C 156.183594 318.402344 148.390625 316.304688 140.898438 313.550781 C 136.164062 307.914062 132.027344 302.101562 128.550781 296.167969 C 127.59375 294.488281 126.511719 292.929688 125.375 291.371094 C 124.234375 289.8125 122.976562 288.316406 121.660156 286.875 C 121 286.15625 120.339844 285.4375 119.621094 284.839844 C 118.960938 284.179688 118.242188 283.582031 117.582031 283.101562 C 116.921875 282.621094 116.203125 282.261719 115.542969 282.082031 C 114.886719 281.902344 114.285156 281.84375 113.6875 282.082031 C 111.589844 282.800781 112.007812 285.976562 113.265625 289.09375 C 113.625 289.992188 114.046875 290.894531 114.464844 291.730469 C 114.945312 292.570312 115.484375 293.410156 116.085938 294.25 C 116.683594 295.089844 117.28125 295.925781 118.003906 296.707031 C 118.722656 297.484375 119.441406 298.207031 120.21875 298.925781 C 125.554688 303.78125 131.367188 308.335938 137.601562 312.351562 C 129.871094 309.292969 122.378906 305.519531 115.304688 301.023438 C 111.707031 294.371094 108.832031 287.597656 106.671875 280.824219 C 106.375 279.925781 106.074219 279.023438 105.714844 278.125 C 105.355469 277.226562 104.996094 276.328125 104.636719 275.429688 C 104.277344 274.53125 103.855469 273.691406 103.378906 272.851562 C 102.957031 272.011719 102.476562 271.113281 102 270.273438 C 101.519531 269.433594 100.980469 268.597656 100.441406 267.816406 C 99.902344 267.039062 99.363281 266.316406 98.820312 265.71875 C 98.28125 265.121094 97.683594 264.640625 97.082031 264.339844 C 96.484375 264.039062 95.886719 263.859375 95.285156 263.980469 C 94.207031 264.160156 93.605469 265 93.308594 266.257812 C 93.1875 266.859375 93.128906 267.636719 93.128906 268.355469 C 93.128906 269.136719 93.246094 269.914062 93.367188 270.753906 C 93.546875 271.710938 93.726562 272.671875 94.027344 273.570312 C 94.265625 274.53125 94.6875 275.429688 95.046875 276.386719 C 95.464844 277.347656 95.886719 278.246094 96.363281 279.144531 C 96.84375 280.042969 97.445312 280.941406 98.042969 281.78125 C 102.476562 288.074219 107.574219 294.128906 113.265625 299.703125 C 106.015625 294.910156 99.242188 289.453125 93.007812 283.460938 C 90.851562 276.027344 89.410156 268.597656 88.691406 261.34375 C 88.574219 260.382812 88.453125 259.484375 88.332031 258.527344 C 88.214844 257.566406 88.03125 256.609375 87.851562 255.648438 C 87.671875 254.691406 87.433594 253.792969 87.195312 252.832031 C 86.953125 251.875 86.714844 250.972656 86.414062 250.015625 C 85.753906 248.21875 85.15625 246.300781 84.257812 244.921875 C 83.359375 243.542969 82.398438 242.523438 81.199219 242.464844 C 80.121094 242.402344 79.34375 243.0625 78.800781 244.261719 C 78.5625 244.859375 78.324219 245.519531 78.144531 246.300781 C 78.023438 247.078125 77.902344 247.855469 77.902344 248.695312 C 77.84375 250.554688 77.902344 252.59375 78.324219 254.570312 C 78.742188 256.546875 79.28125 258.585938 80.121094 260.503906 C 83.359375 268.054688 87.3125 275.488281 92.050781 282.5625 C 85.933594 276.148438 80.179688 269.136719 75.148438 261.644531 C 74.546875 253.671875 74.726562 245.9375 75.625 238.507812 C 75.746094 237.546875 75.804688 236.648438 75.867188 235.691406 C 75.925781 234.730469 75.984375 233.773438 75.984375 232.8125 C 75.984375 231.855469 75.925781 230.894531 75.925781 229.9375 C 75.925781 228.976562 75.867188 228.019531 75.746094 227.058594 C 75.507812 225.140625 75.328125 223.164062 74.785156 221.605469 C 74.246094 220.046875 73.527344 218.90625 72.328125 218.546875 C 71.25 218.25 70.351562 218.726562 69.574219 219.746094 C 69.210938 220.226562 68.851562 220.886719 68.492188 221.605469 C 68.195312 222.324219 67.953125 223.101562 67.714844 223.882812 C 67.472656 224.78125 67.292969 225.742188 67.113281 226.699219 C 67.054688 227.179688 66.996094 227.660156 66.933594 228.199219 C 66.875 228.675781 66.875 229.214844 66.875 229.695312 C 66.875 231.675781 66.933594 233.832031 67.355469 235.871094 C 68.972656 244.441406 71.492188 253.011719 74.90625 261.402344 C 69.574219 253.25 65.015625 244.5 61.480469 235.390625 C 59.800781 227.777344 58.785156 220.105469 58.484375 212.492188 C 58.304688 207.820312 57.765625 203.203125 56.746094 198.648438 C 55.726562 194.152344 54.46875 189.476562 51.769531 189.539062 C 49.433594 189.539062 48.234375 193.613281 47.875 197.929688 C 47.457031 202.84375 48.113281 207.9375 49.734375 212.613281 C 50.390625 214.59375 51.171875 216.570312 51.890625 218.488281 C 52.609375 220.464844 53.449219 222.324219 54.289062 224.242188 C 55.964844 228.019531 57.824219 231.734375 59.800781 235.269531 C 62.078125 241.265625 64.777344 247.078125 67.894531 252.710938 C 62.199219 245.878906 57.105469 238.386719 52.667969 230.296875 C 52.128906 229.277344 51.53125 228.316406 50.929688 227.296875 C 50.332031 226.339844 49.792969 225.378906 49.132812 224.421875 C 48.535156 223.523438 47.875 222.625 47.15625 221.722656 C 46.496094 220.886719 45.835938 220.046875 45.117188 219.207031 C 43.917969 217.828125 42.601562 216.511719 41.402344 215.789062 C 40.261719 215.070312 39.183594 214.890625 38.40625 215.789062 C 37.503906 216.808594 37.503906 218.609375 37.925781 220.707031 C 38.164062 221.722656 38.464844 222.863281 38.882812 224.003906 C 39.304688 225.140625 39.84375 226.28125 40.382812 227.359375 C 41.460938 229.578125 42.78125 231.613281 44.160156 233.472656 C 45.539062 235.332031 47.09375 237.007812 48.714844 238.507812 C 54.949219 244.203125 61.539062 249.175781 68.3125 253.371094 C 72.6875 261.164062 77.84375 268.535156 83.65625 275.367188 C 77.125 270.152344 70.949219 264.28125 65.316406 257.746094 C 64.597656 256.847656 63.816406 256.007812 62.980469 255.230469 C 62.199219 254.390625 61.421875 253.613281 60.582031 252.832031 C 59.800781 252.054688 58.964844 251.332031 58.0625 250.613281 C 57.226562 249.894531 56.386719 249.234375 55.546875 248.636719 C 54.046875 247.558594 52.488281 246.597656 51.230469 246.121094 C 49.972656 245.640625 48.894531 245.757812 48.292969 246.777344 C 47.636719 247.976562 47.996094 249.714844 48.832031 251.695312 C 49.253906 252.652344 49.792969 253.671875 50.453125 254.691406 C 51.113281 255.710938 51.890625 256.667969 52.667969 257.628906 C 54.167969 259.546875 55.90625 261.285156 57.644531 262.78125 C 58.0625 263.140625 58.542969 263.5625 58.964844 263.859375 C 59.382812 264.21875 59.863281 264.519531 60.34375 264.878906 C 61.242188 265.539062 62.199219 266.136719 63.160156 266.679688 C 70.292969 270.8125 77.542969 274.109375 84.796875 276.746094 C 90.492188 283.222656 96.785156 289.15625 103.558594 294.429688 C 96.605469 290.894531 89.832031 286.695312 83.359375 281.84375 C 82.457031 281.121094 81.5 280.464844 80.539062 279.863281 C 80.300781 279.683594 80.0625 279.566406 79.820312 279.382812 C 79.582031 279.203125 79.34375 279.085938 79.101562 278.90625 C 78.621094 278.605469 78.144531 278.304688 77.664062 278.007812 C 76.703125 277.40625 75.746094 276.867188 74.785156 276.386719 C 73.828125 275.910156 72.867188 275.429688 71.910156 274.949219 C 70.230469 274.171875 68.492188 273.570312 67.113281 273.449219 C 65.796875 273.269531 64.71875 273.570312 64.417969 274.710938 C 64 276.027344 64.71875 277.648438 65.976562 279.382812 C 66.277344 279.804688 66.636719 280.222656 66.996094 280.703125 C 67.175781 280.941406 67.355469 281.121094 67.59375 281.363281 C 67.773438 281.601562 68.015625 281.78125 68.253906 281.960938 C 69.152344 282.800781 70.050781 283.640625 71.011719 284.359375 C 74.847656 287.417969 79.042969 289.632812 83.179688 290.953125 C 90.789062 293.351562 98.34375 295.089844 105.773438 296.105469 C 112.429688 301.023438 119.5 305.398438 126.871094 309.054688 C 119.859375 307.136719 112.90625 304.617188 106.074219 301.5 C 105.054688 301.023438 103.976562 300.542969 102.957031 300.125 C 102.417969 299.945312 101.878906 299.703125 101.398438 299.523438 C 100.859375 299.34375 100.378906 299.105469 99.839844 298.925781 C 97.742188 298.207031 95.585938 297.664062 93.546875 297.1875 C 91.75 296.828125 89.949219 296.585938 88.574219 296.707031 C 87.195312 296.828125 86.296875 297.367188 86.175781 298.566406 C 85.996094 301.203125 90.25 304.4375 94.625 306.597656 C 95.707031 307.195312 96.84375 307.617188 97.921875 308.035156 C 99.0625 308.453125 100.140625 308.8125 101.28125 309.175781 C 103.496094 309.832031 105.773438 310.191406 107.871094 310.433594 C 115.605469 311.152344 123.15625 311.210938 130.410156 310.671875 C 137.601562 313.96875 145.09375 316.667969 152.765625 318.644531 C 146.054688 318.222656 139.28125 317.265625 132.507812 315.828125 C 131.367188 315.585938 130.289062 315.347656 129.152344 315.167969 C 128.609375 315.109375 128.011719 314.988281 127.472656 314.929688 C 126.933594 314.867188 126.394531 314.75 125.792969 314.6875 C 124.714844 314.566406 123.578125 314.449219 122.496094 314.386719 C 121.957031 314.386719 121.417969 314.328125 120.878906 314.328125 C 120.339844 314.328125 119.800781 314.328125 119.320312 314.328125 C 115.664062 314.386719 112.066406 314.867188 112.429688 317.207031 C 112.609375 318.523438 113.925781 319.722656 115.785156 320.800781 C 116.265625 321.042969 116.742188 321.339844 117.28125 321.582031 C 117.820312 321.820312 118.363281 322 118.902344 322.242188 C 120.039062 322.660156 121.238281 323.019531 122.378906 323.320312 C 122.675781 323.378906 122.976562 323.5 123.277344 323.558594 C 123.578125 323.617188 123.875 323.679688 124.175781 323.738281 C 124.773438 323.859375 125.375 323.976562 125.972656 324.039062 C 127.171875 324.21875 128.3125 324.339844 129.449219 324.457031 C 131.789062 324.578125 134.003906 324.519531 136.164062 324.277344 C 143.59375 323.378906 150.789062 321.820312 157.5625 319.84375 C 166.972656 321.878906 176.5625 322.960938 186.152344 323.078125 C 186.75 323.078125 187.289062 322.71875 187.289062 322.300781 C 187.289062 321.878906 186.929688 321.820312 186.332031 321.761719 Z M 186.332031 321.761719 " fill-opacity="1" fill-rule="nonzero"/></g><g clip-path="url(#c5ae48ef82)"><path fill="#ffffff" d="M 336.535156 215.910156 C 335.757812 215.011719 334.675781 215.132812 333.539062 215.910156 C 332.339844 216.628906 331.019531 217.886719 329.824219 219.328125 C 329.101562 220.105469 328.445312 220.945312 327.785156 221.84375 C 327.125 222.683594 326.464844 223.582031 325.804688 224.542969 C 325.148438 225.441406 324.609375 226.398438 324.007812 227.417969 C 323.410156 228.378906 322.808594 229.398438 322.269531 230.414062 C 317.894531 238.507812 312.800781 246.058594 307.046875 252.832031 C 310.101562 247.199219 312.800781 241.382812 315.136719 235.390625 C 317.117188 231.792969 318.972656 228.136719 320.652344 224.363281 C 321.429688 222.445312 322.332031 220.585938 323.050781 218.609375 C 323.769531 216.691406 324.546875 214.710938 325.207031 212.734375 C 326.765625 208.058594 327.484375 202.964844 327.066406 198.050781 C 326.707031 193.734375 325.507812 189.71875 323.167969 189.65625 C 320.53125 189.65625 319.214844 194.273438 318.195312 198.769531 C 317.234375 203.324219 316.636719 208 316.457031 212.613281 C 316.097656 220.226562 315.136719 227.898438 313.460938 235.511719 C 309.921875 244.621094 305.367188 253.371094 300.035156 261.523438 C 303.449219 253.132812 305.96875 244.5625 307.585938 235.988281 C 308.003906 233.953125 308.125 231.792969 308.066406 229.816406 C 308.066406 229.335938 308.003906 228.796875 308.003906 228.316406 C 307.945312 227.839844 307.886719 227.296875 307.824219 226.820312 C 307.644531 225.859375 307.464844 224.902344 307.226562 224.003906 C 306.984375 223.222656 306.746094 222.445312 306.445312 221.722656 C 306.148438 221.003906 305.789062 220.40625 305.367188 219.867188 C 304.589844 218.847656 303.691406 218.308594 302.609375 218.667969 C 301.410156 219.027344 300.691406 220.226562 300.152344 221.722656 C 299.613281 223.28125 299.433594 225.261719 299.195312 227.179688 C 299.074219 228.136719 299.015625 229.097656 299.015625 230.054688 C 299.015625 231.015625 298.953125 231.972656 298.953125 232.933594 C 298.953125 233.890625 299.015625 234.851562 299.074219 235.808594 C 299.132812 236.769531 299.195312 237.667969 299.3125 238.628906 C 300.214844 246 300.394531 253.792969 299.792969 261.761719 C 294.757812 269.253906 289.003906 276.269531 282.652344 282.621094 C 287.386719 275.546875 291.402344 268.117188 294.578125 260.5625 C 295.417969 258.644531 296.015625 256.609375 296.378906 254.628906 C 296.796875 252.652344 296.855469 250.675781 296.796875 248.757812 C 296.738281 247.917969 296.675781 247.136719 296.558594 246.359375 C 296.378906 245.578125 296.199219 244.921875 295.898438 244.320312 C 295.359375 243.183594 294.578125 242.464844 293.5 242.523438 C 292.242188 242.644531 291.28125 243.601562 290.441406 244.980469 C 289.605469 246.359375 288.945312 248.277344 288.285156 250.074219 C 287.984375 250.972656 287.746094 251.933594 287.507812 252.890625 C 287.265625 253.851562 287.027344 254.75 286.847656 255.710938 C 286.667969 256.667969 286.488281 257.628906 286.367188 258.585938 C 286.1875 259.546875 286.066406 260.445312 286.007812 261.402344 C 285.289062 268.65625 283.910156 276.089844 281.691406 283.519531 C 275.457031 289.574219 268.6875 295.027344 261.433594 299.761719 C 267.128906 294.1875 272.222656 288.136719 276.65625 281.84375 C 277.257812 280.941406 277.855469 280.105469 278.335938 279.203125 C 278.816406 278.304688 279.292969 277.347656 279.65625 276.449219 C 280.074219 275.488281 280.433594 274.589844 280.671875 273.628906 C 280.914062 272.671875 281.152344 271.710938 281.332031 270.8125 C 281.453125 269.972656 281.574219 269.195312 281.574219 268.417969 C 281.574219 267.636719 281.511719 266.917969 281.394531 266.316406 C 281.09375 265.058594 280.492188 264.21875 279.414062 264.039062 C 278.816406 263.980469 278.214844 264.101562 277.617188 264.398438 C 277.015625 264.699219 276.417969 265.179688 275.878906 265.777344 C 275.339844 266.378906 274.738281 267.097656 274.261719 267.875 C 273.71875 268.65625 273.179688 269.496094 272.703125 270.335938 C 272.222656 271.171875 271.742188 272.074219 271.324219 272.910156 C 270.84375 273.75 270.425781 274.648438 270.0625 275.488281 C 269.644531 276.386719 269.34375 277.285156 268.984375 278.1875 C 268.625 279.085938 268.328125 279.984375 268.027344 280.882812 C 265.867188 287.597656 262.992188 294.371094 259.394531 301.082031 C 252.324219 305.519531 244.890625 309.292969 237.097656 312.410156 C 243.332031 308.394531 249.207031 303.839844 254.480469 298.984375 C 255.261719 298.265625 256.039062 297.484375 256.699219 296.765625 C 257.359375 295.988281 258.015625 295.148438 258.617188 294.308594 C 259.214844 293.46875 259.753906 292.632812 260.234375 291.792969 C 260.714844 290.894531 261.132812 290.054688 261.433594 289.15625 C 262.691406 286.097656 263.113281 282.859375 261.015625 282.140625 C 260.414062 281.902344 259.816406 281.960938 259.15625 282.140625 C 258.496094 282.320312 257.835938 282.679688 257.117188 283.160156 C 256.457031 283.640625 255.738281 284.238281 255.078125 284.898438 C 254.359375 285.558594 253.703125 286.21875 253.042969 286.9375 C 251.722656 288.433594 250.464844 289.875 249.324219 291.433594 C 248.1875 293.050781 247.109375 294.550781 246.148438 296.226562 C 242.671875 302.160156 238.539062 308.035156 233.800781 313.609375 C 226.308594 316.367188 218.519531 318.464844 210.667969 319.84375 C 217.140625 317.324219 223.253906 314.386719 229.066406 310.972656 C 229.964844 310.433594 230.863281 309.832031 231.703125 309.234375 C 232.542969 308.632812 233.324219 307.914062 234.101562 307.253906 C 234.882812 306.597656 235.539062 305.878906 236.199219 305.15625 C 236.859375 304.4375 237.457031 303.601562 237.996094 302.820312 C 238.957031 301.441406 239.675781 300.003906 239.976562 298.746094 C 240.214844 297.484375 240.035156 296.46875 239.078125 295.867188 C 238.058594 295.207031 236.617188 295.386719 235.0625 295.988281 C 234.28125 296.289062 233.503906 296.765625 232.722656 297.246094 C 231.882812 297.726562 231.105469 298.265625 230.265625 298.804688 C 228.707031 300.003906 227.148438 301.140625 225.710938 302.460938 C 225.351562 302.761719 224.992188 303.121094 224.632812 303.480469 C 224.273438 303.78125 223.914062 304.140625 223.613281 304.4375 C 222.894531 305.097656 222.234375 305.757812 221.632812 306.476562 C 221.09375 307.074219 220.496094 307.734375 219.894531 308.335938 L 218.097656 310.132812 C 216.898438 311.332031 215.640625 312.589844 214.382812 313.667969 C 213.125 314.808594 211.804688 316.007812 210.425781 317.144531 C 209.046875 318.222656 207.667969 319.363281 206.289062 320.441406 C 205.929688 320.503906 205.570312 320.5625 205.152344 320.621094 L 204.011719 320.742188 L 201.796875 320.980469 L 199.578125 321.222656 C 198.859375 321.28125 198.078125 321.339844 197.359375 321.402344 C 195.863281 321.519531 194.363281 321.640625 192.863281 321.699219 L 188.371094 321.820312 C 187.769531 321.820312 187.230469 322.179688 187.230469 322.660156 C 187.230469 323.140625 187.710938 323.4375 188.371094 323.4375 C 197.960938 323.320312 207.609375 322.242188 216.960938 320.203125 C 223.734375 322.179688 230.925781 323.679688 238.355469 324.636719 C 240.515625 324.878906 242.734375 324.9375 245.070312 324.816406 C 246.210938 324.699219 247.40625 324.578125 248.546875 324.398438 C 249.144531 324.277344 249.746094 324.21875 250.34375 324.097656 C 250.644531 324.039062 250.945312 323.976562 251.242188 323.917969 C 251.542969 323.859375 251.84375 323.738281 252.144531 323.679688 C 253.339844 323.378906 254.480469 323.019531 255.621094 322.601562 C 256.160156 322.421875 256.757812 322.179688 257.238281 321.941406 C 257.777344 321.699219 258.257812 321.460938 258.734375 321.160156 C 260.59375 320.082031 261.914062 318.882812 262.09375 317.566406 C 262.453125 315.226562 258.855469 314.6875 255.199219 314.6875 C 254.660156 314.6875 254.121094 314.6875 253.640625 314.6875 C 253.101562 314.6875 252.5625 314.6875 252.023438 314.75 C 250.945312 314.808594 249.867188 314.867188 248.726562 315.046875 C 248.1875 315.109375 247.648438 315.226562 247.046875 315.289062 C 246.507812 315.347656 245.910156 315.40625 245.371094 315.527344 C 244.230469 315.707031 243.152344 315.945312 242.011719 316.1875 C 235.242188 317.625 228.46875 318.585938 221.753906 319.003906 C 229.425781 317.027344 236.917969 314.328125 244.113281 311.03125 C 251.363281 311.570312 258.914062 311.511719 266.648438 310.792969 C 268.804688 310.550781 271.023438 310.191406 273.242188 309.535156 C 274.320312 309.175781 275.457031 308.8125 276.597656 308.394531 C 277.738281 307.976562 278.816406 307.496094 279.894531 306.957031 C 284.269531 304.796875 288.523438 301.621094 288.34375 298.925781 C 288.226562 297.726562 287.328125 297.246094 285.949219 297.066406 C 284.570312 296.945312 282.769531 297.1875 280.972656 297.546875 C 278.933594 298.027344 276.777344 298.503906 274.679688 299.285156 C 274.140625 299.464844 273.660156 299.644531 273.121094 299.882812 C 272.582031 300.0625 272.042969 300.304688 271.5625 300.484375 C 270.484375 300.902344 269.464844 301.320312 268.445312 301.863281 C 261.613281 304.976562 254.660156 307.496094 247.648438 309.414062 C 255.078125 305.757812 262.152344 301.382812 268.746094 296.46875 C 276.179688 295.449219 283.789062 293.769531 291.34375 291.3125 C 295.476562 289.992188 299.671875 287.777344 303.511719 284.71875 C 304.46875 283.941406 305.429688 283.160156 306.265625 282.320312 C 306.507812 282.140625 306.6875 281.902344 306.925781 281.722656 C 307.105469 281.484375 307.347656 281.304688 307.527344 281.0625 C 307.886719 280.644531 308.246094 280.222656 308.542969 279.746094 C 309.804688 278.007812 310.523438 276.386719 310.101562 275.070312 C 309.742188 273.929688 308.722656 273.628906 307.40625 273.808594 C 306.027344 273.992188 304.347656 274.589844 302.609375 275.308594 C 301.652344 275.730469 300.691406 276.207031 299.734375 276.746094 C 298.773438 277.226562 297.816406 277.765625 296.855469 278.367188 C 296.378906 278.664062 295.898438 278.964844 295.417969 279.265625 C 295.179688 279.445312 294.9375 279.566406 294.699219 279.746094 C 294.460938 279.925781 294.21875 280.042969 293.980469 280.222656 C 293.019531 280.824219 292.121094 281.484375 291.164062 282.203125 C 284.6875 287.058594 277.976562 291.253906 270.964844 294.789062 C 277.738281 289.515625 284.03125 283.582031 289.722656 277.105469 C 296.976562 274.46875 304.230469 271.171875 311.363281 267.039062 C 312.320312 266.5 313.21875 265.898438 314.179688 265.238281 C 314.660156 264.941406 315.136719 264.582031 315.558594 264.21875 C 315.976562 263.859375 316.457031 263.5 316.875 263.140625 C 318.613281 261.644531 320.351562 259.90625 321.851562 257.988281 C 322.628906 257.027344 323.347656 256.007812 324.070312 255.050781 C 324.726562 254.03125 325.265625 253.011719 325.6875 252.054688 C 326.527344 250.136719 326.886719 248.335938 326.226562 247.136719 C 325.625 246.058594 324.609375 246 323.289062 246.480469 C 322.03125 246.957031 320.414062 247.917969 318.972656 248.996094 C 318.132812 249.59375 317.296875 250.316406 316.457031 250.972656 C 315.617188 251.695312 314.777344 252.414062 313.9375 253.191406 C 313.101562 253.972656 312.378906 254.75 311.542969 255.589844 C 310.761719 256.429688 309.984375 257.269531 309.203125 258.105469 C 303.570312 264.640625 297.394531 270.515625 290.863281 275.730469 C 296.675781 268.894531 301.773438 261.523438 306.207031 253.730469 C 312.980469 249.535156 319.511719 244.621094 325.808594 238.867188 C 327.363281 237.367188 328.984375 235.75 330.363281 233.832031 C 331.742188 231.972656 333.058594 229.9375 334.136719 227.71875 C 334.675781 226.640625 335.21875 225.5 335.636719 224.363281 C 336.054688 223.222656 336.355469 222.085938 336.59375 221.066406 C 337.496094 218.726562 337.433594 216.929688 336.535156 215.910156 Z M 336.535156 215.910156 " fill-opacity="1" fill-rule="nonzero"/></g><g clip-path="url(#4180686170)"><path fill="#ffffff" d="M 201.253906 82.875 L 178.492188 82.875 L 178.492188 105.636719 L 155.925781 105.636719 L 155.925781 128.402344 L 178.492188 128.402344 L 178.492188 178.460938 L 201.253906 178.460938 L 201.253906 128.398438 L 222.089844 128.398438 L 222.089844 105.636719 L 201.253906 105.636719 Z M 201.253906 82.875 " fill-opacity="1" fill-rule="nonzero"/></g><g clip-path="url(#362ad7197b)"><path fill="#ffffff" d="M 263.863281 218.816406 C 236.890625 211.515625 216.699219 217.675781 203.445312 225.492188 C 221.566406 207.0625 249.210938 201.007812 258.0625 199.503906 Z M 231.972656 178.589844 L 239.582031 196.761719 C 225.242188 201.214844 206.5 209.859375 193.816406 225.804688 C 201.839844 197.898438 223.792969 183.195312 231.972656 178.589844 Z M 142.925781 178.589844 C 151.105469 183.195312 173.054688 197.847656 181.082031 225.855469 C 168.394531 209.910156 149.65625 201.265625 135.316406 196.8125 Z M 116.832031 199.503906 C 125.683594 201.007812 153.332031 207.0625 171.449219 225.492188 C 158.199219 217.675781 138.007812 211.515625 111.035156 218.816406 Z M 199.097656 252.519531 L 175.800781 252.519531 C 170.675781 245.890625 148.515625 224.613281 87.996094 249.824219 L 93.226562 232.898438 C 153.589844 203.59375 183.410156 243.820312 184.652344 245.582031 C 184.703125 245.632812 184.753906 245.632812 184.808594 245.683594 C 184.859375 245.789062 184.910156 245.890625 185.015625 245.941406 C 185.066406 245.996094 185.066406 245.996094 185.066406 246.046875 C 185.171875 246.148438 185.273438 246.203125 185.429688 246.253906 C 185.53125 246.304688 185.636719 246.410156 185.738281 246.460938 C 185.84375 246.511719 185.945312 246.617188 186.101562 246.667969 C 186.152344 246.667969 186.207031 246.71875 186.207031 246.71875 C 186.414062 246.824219 186.671875 246.824219 186.929688 246.875 C 187.085938 246.875 187.1875 246.980469 187.34375 246.980469 C 187.394531 246.980469 187.449219 246.980469 187.5 246.980469 C 187.550781 246.980469 187.601562 246.980469 187.65625 246.980469 C 187.808594 246.980469 187.914062 246.925781 188.070312 246.875 C 188.328125 246.824219 188.535156 246.824219 188.792969 246.71875 C 188.847656 246.71875 188.898438 246.667969 188.898438 246.667969 C 189.054688 246.617188 189.15625 246.511719 189.261719 246.460938 C 189.363281 246.410156 189.46875 246.359375 189.570312 246.253906 C 189.675781 246.148438 189.828125 246.097656 189.933594 246.046875 C 189.984375 245.996094 189.984375 245.996094 189.984375 245.941406 C 190.089844 245.839844 190.140625 245.789062 190.191406 245.683594 C 190.242188 245.632812 190.296875 245.632812 190.347656 245.582031 C 191.589844 243.820312 221.410156 203.59375 281.773438 232.898438 L 287.003906 249.824219 C 226.429688 224.613281 204.222656 245.941406 199.097656 252.519531 Z M 199.097656 252.519531 " fill-opacity="1" fill-rule="nonzero"/></g></svg>